<svg xmlns="http://www.w3.org/2000/svg" xmlns:xlink="http://www.w3.org/1999/xlink" width="278.781" height="93.695" viewBox="0 0 278.781 93.695"><defs><filter id="a" x="0" y="0" width="107.15" height="93.695" filterUnits="userSpaceOnUse"><feOffset dy="3" input="SourceAlpha"/><feGaussianBlur stdDeviation="3" result="b"/><feFlood flood-opacity="0.161"/><feComposite operator="in" in2="b"/><feComposite in="SourceGraphic"/></filter><clipPath id="c"><path d="M158.451,342.881l-7.46-4.307-14.39-8.309c-.8-.461-1.595-.182-1.595.782V364.9c0,.723.569,1.034,1.263.634l14.721-8.5,7.46-4.307,7.171-4.139c.841-.486.76-1.153.051-1.535S158.451,342.881,158.451,342.881Z" transform="translate(-135.006 -330.047)" fill="none"/></clipPath><linearGradient id="d" x1="0.5" x2="0.5" y2="1" gradientUnits="objectBoundingBox"><stop offset="0" stop-color="#006aa2"/><stop offset="0.345" stop-color="#2f8da6"/><stop offset="0.786" stop-color="#66b6ac"/><stop offset="1" stop-color="#7cc6af"/></linearGradient><linearGradient id="e" y1="0.5" x2="1" y2="0.5" gradientUnits="objectBoundingBox"><stop offset="0" stop-color="#4ab59d"/><stop offset="1" stop-color="#dfe385"/></linearGradient><linearGradient id="f" x1="0.5" x2="0.5" y2="1" gradientUnits="objectBoundingBox"><stop offset="0" stop-color="#e4282d"/><stop offset="0.316" stop-color="#ba2d4e"/><stop offset="0.777" stop-color="#83357b"/><stop offset="1" stop-color="#6e388d"/></linearGradient><linearGradient id="g" x1="0.5" x2="0.5" y2="1" gradientUnits="objectBoundingBox"><stop offset="0" stop-color="#f07165"/><stop offset="0.659" stop-color="#faa460"/><stop offset="1" stop-color="#ffba5e"/></linearGradient><filter id="h" x="91.108" y="12.361" width="186" height="70" filterUnits="userSpaceOnUse"><feOffset dx="1" dy="1" input="SourceAlpha"/><feGaussianBlur stdDeviation="0.5" result="i"/><feFlood flood-opacity="0.161"/><feComposite operator="in" in2="i"/><feComposite in="SourceGraphic"/></filter></defs><g transform="translate(9 -5.261)"><g transform="translate(0 11.261)"><path d="M5.394,0h257.95c2.979,0,5.394,1.652,5.394,3.69V72c0,2.038-2.415,3.69-5.394,3.69H5.394C2.415,75.695,0,74.043,0,72V3.69C0,1.652,2.415,0,5.394,0Z" transform="translate(1.042 0)" fill="#056839"/><g transform="matrix(1, 0, 0, 1, -9, -6)" filter="url(#a)"><path d="M127.774,353.844l-7.644-7.6a18.8,18.8,0,0,1-5.613-13.34V316H43.723a5,5,0,0,0-5.1,4.9v65.89a5,5,0,0,0,5.1,4.9h70.793V374.782a18.805,18.805,0,0,1,5.613-13.34Z" transform="translate(-29.62 -310)" fill="#f8f8f7"/></g><g transform="translate(7.794 9.418)"><g transform="translate(0 39.28)"><text transform="translate(25.567 6)" fill="#056839" font-size="6" font-family="SegoeUI-Light, Segoe UI" font-weight="300"><tspan x="-20.098" y="0">Available on the</tspan></text><text transform="translate(26 18.794)" fill="#056839" font-size="10" font-family="SegoeUI, Segoe UI"><tspan x="-26.404" y="0">Google Play</tspan></text></g><g transform="translate(18.426)"><g clip-path="url(#c)"><path d="M135.006,328.285v36.65l18.481-18.325Z" transform="translate(-135.006 -328.855)" fill="url(#d)"/><path d="M158.451,341.409l-7.46-4.307-15.985-9.229v.133l18.481,18.325Z" transform="translate(-135.006 -328.576)" fill="url(#e)"/><path d="M135.006,403.262v.133l15.985-9.23,7.46-4.307-4.964-4.922Z" transform="translate(-135.006 -367.182)" fill="url(#f)"/><path d="M197.1,369.721l-4.964,4.922,4.964,4.921,8.526-4.922Z" transform="translate(-173.659 -356.888)" fill="url(#g)"/></g></g></g></g><g transform="matrix(1, 0, 0, 1, -9, 5.26)" filter="url(#h)"><text transform="translate(91.61 12.86)" fill="#fff" font-size="14" font-family="SegoeUI-Bold, Segoe UI" font-weight="700"><tspan x="40.068" y="15">PERMOHONAN </tspan><tspan x="36.219" y="33">PERLINDUNGAN</tspan><tspan x="74.979" y="51">LPSK</tspan></text></g></g></svg>