<svg xmlns="http://www.w3.org/2000/svg" width="269.78" height="163.113" viewBox="0 0 269.78 163.113"><g transform="translate(-38 -111.343)"><g transform="translate(38 135.616)"><path d="M16.432,0H253.348c9.075,0,16.432,6.734,16.432,15.041V113.8c0,8.307-7.357,15.041-16.432,15.041H0V15.041C0,6.734,7.357,0,16.432,0Z" transform="translate(0 0)" fill="#f63024"/></g><g transform="translate(38 111.343)"><g transform="translate(99.322 11.987)"><path d="M352.46,133.671H268.927a12.286,12.286,0,0,0-12.286,12.286h0a12.286,12.286,0,0,0,12.286,12.285H352.46a12.286,12.286,0,0,0,12.285-12.285h0A12.286,12.286,0,0,0,352.46,133.671Z" transform="translate(-256.641 -129.854)" fill="#d33213"/><path d="M349.308,151.893H268.927a12.286,12.286,0,0,1-12.286-12.286h0a12.286,12.286,0,0,1,12.286-12.285h80.381a12.286,12.286,0,0,1,12.286,12.285h0A12.286,12.286,0,0,1,349.308,151.893Z" transform="translate(-256.641 -127.321)" fill="#224a72"/><path d="M354.552,151.893H274.17a12.286,12.286,0,0,1-12.285-12.286h0a12.285,12.285,0,0,1,12.285-12.285h80.381a12.286,12.286,0,0,1,12.286,12.285h0A12.286,12.286,0,0,1,354.552,151.893Z" transform="translate(-258.733 -127.321)" fill="#0e2f5e"/><text transform="translate(20.147 15.013)" fill="#fff" font-size="10" font-family="SegoeUI, Segoe UI" letter-spacing="0.001em"><tspan x="0" y="0">HOTLINE LPSK</tspan></text></g><g transform="translate(171.176 38.661)"><g transform="translate(0 0)"><path d="M371.728,205.957a12.579,12.579,0,0,0-9.179-12.1v-.479h-3.4a12.583,12.583,0,1,0,0,25.167h3.4v-.479A12.578,12.578,0,0,0,371.728,205.957Z" transform="translate(-344.764 -188.171)" fill="#cf0b00"/><circle cx="12.583" cy="12.583" r="12.583" transform="matrix(0.684, -0.73, 0.73, 0.684, 0, 18.369)" fill="#fff"/><path d="M372.3,212.088l-.843.843,2.627,2.627.844-.844a.271.271,0,0,0,0-.382l-2.245-2.245A.27.27,0,0,0,372.3,212.088Zm-8.12-3.12c.313,1.463,2.128,3.388,2.892,4.146s2.682,2.579,4.145,2.892a3.474,3.474,0,0,0,2.623-.245l-2.605-2.605-.007.008c-.255.141-.932.283-2.112-1.042l-.193-.193-.667-.667-.193-.193c-1.325-1.18-1.183-1.857-1.042-2.112l.008-.007-2.6-2.6A3.469,3.469,0,0,0,364.179,208.969Zm1.292-3.708-.843.843,2.626,2.627.844-.844a.271.271,0,0,0,0-.382l-2.245-2.245A.27.27,0,0,0,365.47,205.26Z" transform="translate(-351.733 -192.881)" fill="#f6180b"/></g></g><g transform="translate(0 0)"><path d="M90.365,147.759H46.654A8.654,8.654,0,0,0,38,156.413V176.24a6.381,6.381,0,0,0,4.967,1.163,17.4,17.4,0,0,0,4.58,6.715,9.186,9.186,0,0,0,4.83,2.383c.076.066.154.127.231.192q.215.182.432.359c.157.127.313.254.471.376.133.1.268.2.4.3q.442.331.893.641c.107.073.213.147.32.219l.075.051v5.266s-9.268,2.725-17.2,5.835v73.03H146.019V259.6H128.734v-2.716H117.269V245.352h28.75V192.685H73.745v4.059c-4.385-1.673-7.833-2.833-7.833-2.833v-1.573a14.5,14.5,0,0,0,10-3.352c2.952-2.454,4.5-6.863,5.214-11.83a6.55,6.55,0,0,0,2.38-1.439,5.413,5.413,0,0,0,3.792-5.148v-3.817a5.414,5.414,0,0,0-3.792-5.148,6.587,6.587,0,0,0-.607-.506v-7.7l.116-.058q1-.489,1.848-.965l.1-.055q.422-.239.809-.473l.06-.037q.8-.49,1.457-.961l.021-.015q.333-.24.63-.475h0A9.93,9.93,0,0,0,90.365,147.759Zm-1.341,97.593h16.244V255H89.024Z" transform="translate(-38 -129.44)" fill="#cf0b00"/><path d="M213.955,313.972,193.5,334.43l-45.025-.63,2.37-22.981,18.39-5.271Z" transform="translate(-86.043 -198.061)" fill="#d33213"/><path d="M81.335,210.889l21,1.932,2.362,10.752s-.311,5.965-4.924,6.254-14.765.979-16.272,0-5.026-9.55-5.762-12.564S81.335,210.889,81.335,210.889Z" transform="translate(-55.245 -156.895)" fill="#cf0b00"/><path d="M112.311,239.055c-6.963-4.3-22.815-9.63-22.815-9.63H78.785s-18.815,5.531-25.778,9.827-6.519,26.371-6.519,26.371h9.185V300.7h56.934V265.623h9.185S119.273,243.351,112.311,239.055Z" transform="translate(-41.689 -164.956)" fill="#0e2f5e"/><path d="M97.562,318.368c-16.3-8.4-29.433-24.889-29.433-24.889s-2.361,2.248-5.383,5.291v29.781H105.4C105.8,325.418,104.167,321.772,97.562,318.368Z" transform="translate(-48.762 -192.812)" fill="#082344"/><path d="M49.583,293.479s-.592,14.963,1.63,21.038,32,9.932,40.593,10.272v-6.42l-28.84-12.642-.593-12.247Z" transform="translate(-43.006 -192.812)" fill="#ffcfc0"/><rect width="54.948" height="4.602" transform="translate(39.778 125.557)" fill="#3d73a0"/><rect width="22.651" height="4.602" transform="translate(39.778 125.557)" fill="#286384"/><path d="M0,0H10.711a0,0,0,0,1,0,0V15.033a5.355,5.355,0,0,1-5.355,5.355h0A5.355,5.355,0,0,1,0,15.033V0A0,0,0,0,1,0,0Z" transform="translate(37.096 51.241)" fill="#ffcfc0"/><path d="M108.282,221.05V206.017h-4.639V221.05a5.346,5.346,0,0,0,7.675,4.822A5.351,5.351,0,0,1,108.282,221.05Z" transform="translate(-66.547 -154.776)" fill="#f7ab94"/><g transform="translate(15.049 4.719)"><g transform="translate(47.265 18.848)"><rect width="2.484" height="11.875" fill="#0e2f5e"/></g><g transform="translate(39.346 25.652)"><rect width="10.783" height="14.601" rx="5.391" transform="translate(4.019 1.548)" fill="#224a72"/><path d="M140.789,169.086h0a6.554,6.554,0,0,1,6.535,6.534v4.627a6.554,6.554,0,0,1-6.535,6.535h0a6.554,6.554,0,0,1-6.535-6.535V175.62A6.554,6.554,0,0,1,140.789,169.086Z" transform="translate(-134.254 -169.086)" fill="#0e2f5e"/><path d="M139.531,169.312a6.556,6.556,0,0,0-5.277,6.407v4.627a6.556,6.556,0,0,0,5.277,6.407,6.556,6.556,0,0,0,5.277-6.407v-4.627A6.555,6.555,0,0,0,139.531,169.312Z" transform="translate(-134.254 -169.184)" fill="#0e2f5e"/></g><path d="M70.792,159.516s-3.908-10.408-5.743-16.972c-1.556-5.564,1.188-13.275,8.7-11.744,0,0,6.1-8.4,24.9-6.516,19.348,1.942,18.509,10.949,7.023,16.019S70.792,159.516,70.792,159.516Z" transform="translate(-64.63 -123.83)" fill="#892b30"/><path d="M80.6,133.613a11.307,11.307,0,0,1,3.226-7.6c-7.363,1.932-10.075,5.658-10.075,5.658-7.517-1.531-10.26,6.18-8.7,11.744,1.835,6.563,5.743,16.972,5.743,16.972s18.088-10.933,30.264-17.02C90.312,142.384,80.6,138.034,80.6,133.613Z" transform="translate(-64.63 -124.703)" fill="#6d2122"/><path d="M117.79,153.423s5.765,29.851-4.066,38.026-25.53.677-31.739-13.811l-2.794-10.762,3.555-.888,1.826-12.564Z" transform="translate(-70.962 -136.622)" fill="#ffcfc0"/><path d="M118.373,157.022c-.037-.261-.074-.511-.11-.748l-.809-.8s-1.929.279-7.421-2.047H84.572l-1.826,12.564-3.555.888,2.794,10.762c4.362,10.178,13.406,16.9,21.811,17.165-8.868-2.7-13.306-10.638-14.62-19.912a29.588,29.588,0,0,1,2.106-16.1C106.428,163,116.321,158.172,118.373,157.022Z" transform="translate(-70.962 -136.622)" fill="#f7ab94"/><line x1="7.926" transform="translate(9.973 30.549)" fill="none" stroke="#6d2122" stroke-linecap="round" stroke-miterlimit="10" stroke-width="1.968"/><g transform="translate(9.59 41.137)"><path d="M96.616,207.819H92.709a9.177,9.177,0,0,1-6.307-2.51,16.975,16.975,0,0,1-4.751-7.2,1.262,1.262,0,1,1,2.421-.714,14.491,14.491,0,0,0,4.059,6.078,6.663,6.663,0,0,0,4.577,1.824h3.907a1.262,1.262,0,1,1,0,2.524Z" transform="translate(-81.599 -196.487)" fill="#0e2f5e"/></g><rect width="6.906" height="3.889" rx="1.945" transform="translate(21.154 49.263)" fill="#224a72"/><g transform="translate(7.444)"><path d="M115.239,129.439a29.436,29.436,0,0,0,2.934-.378,13.453,13.453,0,0,0-10.74-5.368H91.282A13.494,13.494,0,0,0,77.8,137.172v13.722h2.484V137.172a11.007,11.007,0,0,1,10.995-10.995h16.151A10.96,10.96,0,0,1,115.239,129.439Z" transform="translate(-77.803 -123.693)" fill="#0e2f5e"/></g><path d="M88.713,148.787s16.431,9.363,34.2,3.362l1.73-3.362-5.433-5.1-9.934-.463-8.072-.466a50.454,50.454,0,0,0-5.2.93C94.845,144.082,88.713,148.787,88.713,148.787Z" transform="translate(-75.103 -131.986)" fill="#6d2122"/><rect width="13.07" height="17.697" rx="6.535" transform="translate(2.151 25.652)" fill="#0e2f5e"/><path d="M71.972,186.455h0a5.5,5.5,0,0,1-5.486-5.486v-3.885a5.5,5.5,0,0,1,5.486-5.486h0a5.5,5.5,0,0,1,5.486,5.486v3.885A5.5,5.5,0,0,1,71.972,186.455Z" transform="translate(-65.437 -144.527)" fill="#224a72"/></g><path d="M89.054,125.206s9.064-8.995,16.9-9.784,5.019,4.64,5.019,4.64,9.254-4.182,15.753-4.429c7.573-.289,7.678,7.412,1.157,13.321,0,0,5.41-.619,5.241,2.717-.106,2.11-2.243,5.192-10.476,8.691-3,1-19.028-.3-19.028-.3s-12.425-7.651-12.846-8S89.054,125.206,89.054,125.206Z" transform="translate(-60.203 -115.343)" fill="#892b30"/><path d="M102.262,178.752s3.26-3.926,6.445,0" transform="translate(-65.947 -142.16)" fill="none" stroke="#6d2122" stroke-linecap="round" stroke-miterlimit="10" stroke-width="3.146"/><path d="M133.747,178.752s3.26-3.926,6.445,0" transform="translate(-79.639 -142.16)" fill="none" stroke="#6d2122" stroke-linecap="round" stroke-miterlimit="10" stroke-width="3.146"/><path d="M123.472,180.892a34.248,34.248,0,0,1,2.416,5.815c.584,2.333-2.824,3.484-3.6,3.335s.748-1.31,1.469-2.421S121.4,177.522,123.472,180.892Z" transform="translate(-74.562 -143.523)" fill="#ff634e"/><path d="M110.836,203.307s3.726,6.979,11.859,2.508" transform="translate(-69.675 -153.597)" fill="none" stroke="#6d2122" stroke-linecap="round" stroke-miterlimit="10" stroke-width="3.146"/><path d="M102.062,167.092a9.3,9.3,0,0,1,5.556.546" transform="translate(-65.86 -137.761)" fill="none" stroke="#6d2122" stroke-linecap="round" stroke-miterlimit="10" stroke-width="2.126"/><path d="M140.09,167.092a9.3,9.3,0,0,0-5.556.546" transform="translate(-79.981 -137.761)" fill="none" stroke="#6d2122" stroke-linecap="round" stroke-miterlimit="10" stroke-width="2.126"/><g transform="translate(32.538 31.919)" fill="none" stroke="#6d2122" stroke-linecap="round" stroke-miterlimit="10" stroke-width="2.126"><rect width="13.556" height="8.821" rx="4.411" stroke="none"/><rect x="1.063" y="1.063" width="11.43" height="6.696" rx="3.348" fill="none"/></g><g transform="translate(51.168 31.919)" fill="none" stroke="#6d2122" stroke-linecap="round" stroke-miterlimit="10" stroke-width="2.027"><rect width="12.326" height="8.821" rx="4.411" stroke="none"/><rect x="1.013" y="1.013" width="10.299" height="6.794" rx="3.397" fill="none"/></g><path d="M118.643,177.877a4.884,4.884,0,0,1,6.116,0" transform="translate(-73.07 -142.065)" fill="none" stroke="#6d2122" stroke-linecap="round" stroke-miterlimit="10" stroke-width="2.126"/><path d="M103.643,229.425,109,236.585l-5.355,3.358Z" transform="translate(-66.547 -164.955)" fill="#224a72"/><path d="M118.475,229.425l-5.355,7.161,5.355,3.358Z" transform="translate(-70.668 -164.955)" fill="#224a72"/><rect width="1.291" height="17.976" transform="translate(42.771 74.296)" fill="#224a72"/><path d="M109.67,253.334a1.407,1.407,0,1,1-1.408-1.407A1.408,1.408,0,0,1,109.67,253.334Z" transform="translate(-67.944 -174.741)" fill="#224a72"/><path d="M109.67,269.064a1.407,1.407,0,1,1-1.408-1.408A1.407,1.407,0,0,1,109.67,269.064Z" transform="translate(-67.944 -181.582)" fill="#224a72"/><rect width="72.273" height="52.668" transform="translate(55.64 63.244)" fill="#286384"/><rect width="69.499" height="52.668" transform="translate(58.414 63.244)" fill="#3d73a0"/><path d="M193.267,275.644h-6.178a7.76,7.76,0,0,1-7.76-7.759h0a7.76,7.76,0,0,1,7.76-7.76h6.178a7.76,7.76,0,0,1,7.76,7.76h0A7.76,7.76,0,0,1,193.267,275.644Z" transform="translate(-99.462 -178.307)" fill="#2f6991"/><path d="M197.782,275.644H191.6a7.76,7.76,0,0,1-7.76-7.759h0a7.76,7.76,0,0,1,7.76-7.76h6.178a7.759,7.759,0,0,1,7.76,7.76h0A7.76,7.76,0,0,1,197.782,275.644Z" transform="translate(-101.425 -178.307)" fill="#5692ba"/><path d="M204.128,274.028h-13.28a.848.848,0,0,1-.848-.848h0a.848.848,0,0,1,.848-.848h13.28a.848.848,0,0,1,.848.848h0A.848.848,0,0,1,204.128,274.028Z" transform="translate(-104.102 -183.616)" fill="#2f6991"/><rect width="12" height="37.865" transform="translate(87.163 89.578)" fill="#2f6991"/><rect width="9.671" height="37.865" transform="translate(89.492 89.578)" fill="#5692ba"/><path d="M122.647,142.411a32.54,32.54,0,0,0,7.4-4.106c-14.219,6.615-38.818-.246-38.818-7.283,0-6.565,6.524-10.47,7.4-10.965a49.922,49.922,0,0,0-9.57,7.2s1.3,6.5,1.72,6.851,12.846,8,12.846,8S119.649,143.416,122.647,142.411Z" transform="translate(-60.203 -117.393)" fill="#6d2122"/><rect width="127.912" height="32.954" transform="translate(0 130.159)" fill="#9e3c45"/><rect width="45.202" height="22.954" transform="translate(0 130.159)" fill="#892b30"/><rect width="36.791" height="2.716" transform="translate(73.837 127.443)" fill="#2f6991"/><rect width="32.872" height="2.716" transform="translate(77.756 127.443)" fill="#5692ba"/><path d="M49.583,293.479s-.592,14.963,1.63,21.038c.734,2.006,4.474,3.77,9.463,5.245h0a21.5,21.5,0,0,1-4.945-8.747c-1.7-5.65-.741-17.536-.741-17.536Z" transform="translate(-43.006 -192.812)" fill="#f7ab94"/><path d="M124.354,335.353s10.082-3.262,13.629-2.767a11.862,11.862,0,0,1,5.95,2.767Z" transform="translate(-75.554 -209.796)" fill="#ffcfc0"/><path d="M226.469,312.927a1.177,1.177,0,1,1-1.177-1.177A1.177,1.177,0,0,1,226.469,312.927Z" transform="translate(-118.938 -200.757)" fill="#2f6991"/><path d="M183.4,312.927a1.177,1.177,0,1,1-1.177-1.177A1.177,1.177,0,0,1,183.4,312.927Z" transform="translate(-100.207 -200.757)" fill="#2f6991"/><path d="M233.844,312.927a1.177,1.177,0,1,1-1.177-1.177A1.178,1.178,0,0,1,233.844,312.927Z" transform="translate(-122.146 -200.757)" fill="#2f6991"/><path d="M243.907,313.969h-3.391a.591.591,0,0,1-.589-.589h0a.59.59,0,0,1,.589-.588h3.391a.59.59,0,0,1,.588.588h0A.59.59,0,0,1,243.907,313.969Z" transform="translate(-125.815 -201.21)" fill="#2f6991"/><path d="M205.44,328.128a2.27,2.27,0,1,1-2.27-2.27A2.27,2.27,0,0,1,205.44,328.128Z" transform="translate(-108.843 -206.893)" fill="#f15a29"/></g><g transform="translate(125.892 56.694)"><text transform="translate(0 70)" fill="#cf0b00" font-size="65" font-family="SegoeUI, Segoe UI"><tspan x="0" y="0">148</tspan></text><text transform="translate(6.55 70)" fill="#fff" font-size="65" font-family="SegoeUI, Segoe UI"><tspan x="0" y="0">148</tspan></text></g></g></g></svg>