<svg xmlns="http://www.w3.org/2000/svg" width="40.5" height="54.011" viewBox="0 0 40.5 54.011">
  <path id="file-pdf" d="M39.013,10.236,30.164,1.387A5.063,5.063,0,0,0,26.589-.1H5.063A5.08,5.08,0,0,0,0,4.973V48.848a5.064,5.064,0,0,0,5.063,5.063H35.438A5.064,5.064,0,0,0,40.5,48.848V13.822a5.087,5.087,0,0,0-1.487-3.586Zm-3.987,3.175H27V5.384ZM5.063,48.848V4.973H21.938V15.942a2.525,2.525,0,0,0,2.531,2.531H35.438V48.848ZM31.451,33.692c-1.287-1.266-4.957-.918-6.792-.686a9.146,9.146,0,0,1-3.881-4.883c.411-1.7,1.065-4.282.57-5.906-.443-2.763-3.987-2.489-4.493-.622-.464,1.7-.042,4.061.738,7.077a84.691,84.691,0,0,1-3.734,7.847C11.749,37.605,8.9,39.282,8.48,41.391c-.348,1.666,2.742,5.822,8.026-3.291a52.291,52.291,0,0,1,7.214-2.12,14.033,14.033,0,0,0,5.885,1.793A2.436,2.436,0,0,0,31.451,33.692ZM10.557,41.9c.538-1.445,2.584-3.111,3.206-3.691-2,3.2-3.206,3.765-3.206,3.691Zm8.606-20.1c.78,0,.707,3.386.19,4.3C18.889,24.632,18.9,21.8,19.164,21.8ZM16.59,36.2A41.4,41.4,0,0,0,19.2,30.433a11.621,11.621,0,0,0,3.175,3.744A35.684,35.684,0,0,0,16.59,36.2Zm13.88-.527s-.527.633-3.934-.823C30.238,34.578,30.85,35.422,30.47,35.675Z" transform="translate(0 0.1)" fill="rgba(0,0,0,0.8)"/>
</svg>
