<svg xmlns="http://www.w3.org/2000/svg" xmlns:xlink="http://www.w3.org/1999/xlink" width="269.78" height="86.381" viewBox="0 0 269.78 86.381"><defs><radialGradient id="a" cx="138.932" cy="-13.956" r="688.998" gradientTransform="translate(97.733 -12.32) scale(0.297 0.117)" gradientUnits="userSpaceOnUse"><stop offset="0" stop-color="#31024a"/><stop offset="1" stop-color="#2a023f"/></radialGradient><radialGradient id="b" cx="-42.636" cy="-120.411" r="98.8" gradientTransform="translate(-41.981 -88.475) scale(0.577 0.577)" gradientUnits="userSpaceOnUse"><stop offset="0" stop-color="#fc2ffd"/><stop offset="0.031" stop-color="#e82aeb"/><stop offset="0.112" stop-color="#bd21c4"/><stop offset="0.199" stop-color="#9618a2"/><stop offset="0.291" stop-color="#751184"/><stop offset="0.39" stop-color="#5b0c6d"/><stop offset="0.497" stop-color="#46075a"/><stop offset="0.618" stop-color="#38044d"/><stop offset="0.763" stop-color="#2f0246"/><stop offset="1" stop-color="#2d0244"/></radialGradient><radialGradient id="c" cx="32.719" cy="32.719" r="32.719" gradientTransform="matrix(1, 0, 0, 1, 0, 0)" xlink:href="#b"/><radialGradient id="d" cx="442.371" cy="268.091" r="6.068" gradientTransform="translate(-55.003 -34.334) scale(1.22 1.22)" gradientUnits="userSpaceOnUse"><stop offset="0" stop-color="#c819d3"/><stop offset="0.143" stop-color="#b020ce"/><stop offset="0.733" stop-color="#5640bc"/><stop offset="1" stop-color="#324db5"/></radialGradient><radialGradient id="e" cx="924.816" cy="531.443" r="6.218" gradientTransform="translate(-497.454 -288.335) scale(1.673 1.673)" gradientUnits="userSpaceOnUse"><stop offset="0" stop-color="#c819d3"/><stop offset="0.339" stop-color="#902cc7"/><stop offset="0.789" stop-color="#4c43ba"/><stop offset="1" stop-color="#324db5"/></radialGradient><radialGradient id="f" cx="897.213" cy="518.157" r="10.365" gradientTransform="translate(-441.075 -257.39) scale(1.625 1.625)" gradientUnits="userSpaceOnUse"><stop offset="0" stop-color="#ec35fb"/><stop offset="0.409" stop-color="#a055f1"/><stop offset="0.812" stop-color="#5b72e9"/><stop offset="1" stop-color="#417ee6"/></radialGradient><radialGradient id="g" cx="85.794" cy="32.45" r="33.178" gradientTransform="translate(-0.243 -0.441) scale(0.935 0.935)" gradientUnits="userSpaceOnUse"><stop offset="0" stop-color="#9cf5fe"/><stop offset="0.251" stop-color="#98f2fd"/><stop offset="0.439" stop-color="#8fe8fd"/><stop offset="0.607" stop-color="#7fd8fc"/><stop offset="0.763" stop-color="#68c2fb"/><stop offset="0.91" stop-color="#4ba6fa"/><stop offset="0.941" stop-color="#449ffa"/></radialGradient><linearGradient id="h" x1="6.793" y1="0.056" x2="7.416" y2="0.498" gradientUnits="objectBoundingBox"><stop offset="0" stop-color="#3874da"/><stop offset="1" stop-color="#2a023f"/></linearGradient></defs><g transform="translate(0 -1)"><g transform="translate(0 1)"><rect width="269.78" height="80" rx="5" fill="url(#a)"/><g transform="translate(4.731 7.515)"><path d="M101.911,172.038,57.157,146.2l44.753-25.838L146.664,146.2Z" transform="translate(-45.27 -93.171)" fill="#53a5f8" opacity="0.05"/><path d="M101.911,156.178,57.157,130.34,101.91,104.5l44.754,25.839Z" transform="translate(-45.27 -81.923)" fill="#53a5f8" opacity="0.1"/><path d="M101.911,140.6,57.157,114.762,101.91,88.924l44.754,25.839Z" transform="translate(-45.27 -70.875)" opacity="0.2" fill="url(#b)"/><path d="M136.394,153.735l-30.617-17.677,30.617-17.677,30.617,17.677Z" transform="translate(-79.753 -91.767)" fill="#53a5f8" opacity="0.1"/><path d="M136.559,153.786a1.1,1.1,0,0,1-.549-.147L106.159,136.4a.3.3,0,0,1,0-.521l29.849-17.233a1.1,1.1,0,0,1,1.1,0l29.85,17.234a.3.3,0,0,1,0,.52l-29.849,17.234A1.1,1.1,0,0,1,136.559,153.786Zm-.433-.348a.87.87,0,0,0,.866,0L166.841,136.2a.068.068,0,0,0,0-.117l-29.85-17.234a.867.867,0,0,0-.866,0l-29.849,17.233a.068.068,0,0,0,0,.117Z" transform="translate(-79.918 -91.854)" fill="#53a5f8"/><path d="M95.805,179.841l-.116-.2.2-.116.117.2Zm.987-.57-.117-.2.2-.117.117.2Zm.987-.57-.117-.2.2-.117.116.2Zm.986-.569-.117-.2.2-.117.117.2Zm.987-.57-.117-.2.2-.117.117.2Zm.986-.569-.117-.2.2-.116.117.2Zm.987-.57-.117-.2.2-.116.117.2Zm.986-.57-.117-.2.2-.117.117.2Zm.986-.569-.116-.2.2-.117.117.2Zm.987-.57-.117-.2.2-.117.117.2Zm.987-.569-.117-.2.2-.116.117.2Zm.945-.731-.222-.072a.408.408,0,0,0,.02-.127.393.393,0,0,0,0-.052l.231-.03a.643.643,0,0,1-.026.281Zm-.774-.763-.2-.116.117-.2.2.117Zm-.986-.569-.2-.117.116-.2.2.117Zm-.987-.57-.2-.117.117-.2.2.116Zm-.987-.569-.2-.117.116-.2.2.117Zm-.986-.57-.2-.117.117-.2.2.117Zm-.986-.57-.2-.116.116-.2.2.117Zm-.987-.57-.2-.116.117-.2.2.117Zm44.8-.393c-.038,0-.076,0-.115,0l.014-.233c.037,0,.074,0,.111,0s.073,0,.109,0l.013.233C144.813,168.841,144.769,168.842,144.726,168.842Zm-45.79-.176-.2-.117.117-.2.2.117Zm46.837-.081-.11-.205.064-.035.135-.078.117.2-.135.078Zm-2.075,0-.068-.038-.138-.08.116-.2.139.08.06.033ZM97.949,168.1l-.2-.117.117-.2.2.116Zm48.813-.082-.117-.2.2-.117.116.2Zm-4.055,0-.2-.117.117-.2.2.116Zm-45.744-.486-.2-.117.117-.2.2.117Zm50.786-.082-.116-.2.2-.116.117.2Zm-6.028,0-.2-.117.116-.2.2.116Zm-45.744-.486-.2-.116.117-.2.2.117Zm52.759-.082-.116-.2.2-.116.117.2Zm-8,0-.2-.117.117-.2.2.117Zm-45.744-.486-.2-.116.116-.2.2.117Zm54.731-.082-.116-.2.2-.117.117.2Zm-9.973,0-.2-.117.117-.2.2.117ZM94,165.818l-.2-.117.117-.2.2.117Zm56.7-.082-.116-.2.2-.117.117.2Zm-11.946,0-.2-.117.117-.2.2.117Zm-45.744-.486-.2-.117.116-.2.2.117Zm58.677-.082-.117-.2.2-.117.117.2Zm-13.485-.295-.232-.023a.642.642,0,0,1,.09-.268l.2.122A.406.406,0,0,0,138.209,164.872Zm-46.178-.192-.2-.117.117-.2.2.117Zm60.65-.082-.116-.2.2-.117.117.2Zm-13.711-.356-.117-.2.2-.117.117.2Zm-47.925-.131-.2-.117.117-.2.2.117Zm62.622-.082-.117-.2.2-.116.117.2Zm-13.711-.356-.117-.2.2-.117.116.2Zm-49.9-.131-.2-.116.117-.2.2.117Zm64.6-.082-.117-.2.2-.116.117.2Zm-13.711-.356-.117-.2.2-.117.116.2Zm-51.87-.131-.2-.116.117-.2.2.117Zm66.568-.082-.117-.2.2-.117.117.2Zm-13.711-.356-.117-.2.2-.116.116.2Zm14.7-.213-.117-.2.2-.117.117.2Zm-68.5-.075a.634.634,0,0,1-.034-.207.685.685,0,0,1,0-.074l.231.026c0,.015,0,.031,0,.047a.4.4,0,0,0,.022.131Zm54.791-.281-.116-.2.2-.116.117.2Zm14.7-.213-.117-.2.2-.117.116.2Zm-68.723-.272-.117-.2.2-.117.117.2Zm55.012-.084-.116-.2.2-.117.116.2Zm-34.006-.12-.034-.23a2.04,2.04,0,0,0,.215-.045l.059.225A2.2,2.2,0,0,1,109.895,161.274Zm-.947-.065a2.3,2.3,0,0,1-.231-.082l.09-.215a1.982,1.982,0,0,0,.208.074Zm49.65-.028-.117-.2.2-.117.117.2Zm-68.723-.272-.117-.2.2-.117.116.2Zm21.1-.082-.117-.2.2-.117.116.2Zm33.908,0-.116-.2.2-.117.117.2Zm-36.977-.142-.2-.116.117-.2.2.117Zm51.674-.071-.117-.2.2-.116.116.2Zm-68.723-.273-.117-.2.2-.117.117.2Zm21.1-.082-.117-.2.2-.117.116.2Zm33.908,0-.117-.2.2-.117.117.2Zm-38.95-.142-.2-.117.117-.2.2.117Zm53.647-.071-.117-.2.2-.116.116.2Zm-68.723-.272-.116-.2.2-.117.117.2Zm21.1-.082-.117-.2.2-.117.117.2Zm33.908,0-.117-.2.2-.117.117.2Zm-40.922-.142-.2-.117.117-.2.2.117Zm55.62-.071-.116-.2.2-.117.116.2ZM92.835,159.2l-.117-.2.2-.116.117.2Zm21.1-.082-.117-.2.2-.116.117.2Zm33.908,0-.117-.2.2-.117.117.2Zm-42.895-.142-.2-.117.116-.2.2.117Zm57.592-.071-.117-.2.2-.117.116.2Zm-68.723-.272-.116-.2.2-.117.117.2Zm21.1-.082-.117-.2.2-.116.117.2Zm33.908,0-.117-.2.2-.116.117.2Zm-44.868-.142-.2-.117.117-.2.2.117Zm59.565-.071-.116-.2.2-.117.117.2Zm-68.723-.272-.117-.2.2-.117.117.2Zm21.1-.082-.116-.2.2-.117.117.2Zm33.908,0-.117-.2.2-.116.117.2Zm-46.84-.142-.2-.116.116-.2.2.117Zm61.538-.071-.116-.2.2-.116.116.2Zm-68.723-.273-.117-.2.2-.117.116.2Zm21.1-.082-.117-.2.2-.117.117.2Zm33.908,0-.117-.2.036-.021a.413.413,0,0,0,.113-.1l.181.147a.639.639,0,0,1-.177.151Zm-48.814-.142-.2-.116.117-.2.2.117Zm63.511-.071-.116-.2.2-.116.117.2Zm-68.723-.272-.117-.2.2-.117.117.2Zm21.1-.082-.116-.2.2-.117.117.2Zm-16.878-.144-.2-.117.117-.2.2.117Zm65.483-.071-.116-.2.2-.117.117.2Zm-15.775-.142-.2-.117.117-.2.2.117Zm-52.948-.131-.117-.2.2-.116.116.2Zm21.1-.082-.117-.2.2-.116.117.2Zm-18.848-.142a1.969,1.969,0,0,0-.2-.093l.086-.216a2.353,2.353,0,0,1,.223.1Zm67.453-.074-.116-.2.2-.117.117.2Zm-68.709-.134-.038-.23a2.118,2.118,0,0,1,.245-.026l.011.233A1.906,1.906,0,0,0,98.767,155.922Zm50.962-.008-.2-.117.117-.2.2.117Zm-29.872-.213-.117-.2.2-.116.116.2Zm48.605-.215-.117-.2.2-.117.117.2Zm-19.72-.142-.2-.117.116-.2.2.117Zm-27.9-.213-.117-.2.2-.117.116.2Zm48.605-.215-.117-.2.2-.117.117.2Zm-21.693-.142-.2-.116.116-.2.2.117Zm-25.926-.213-.116-.2.2-.117.117.2Zm48.605-.215-.117-.2.2-.116.117.2ZM146.77,154.2l-.2-.116.116-.2.2.117Zm-23.953-.213-.117-.2.2-.117.117.2Zm22.967-.357-.2-.117.116-.2.2.117Zm-21.981-.213-.116-.2.2-.117.117.2Zm20.995-.357-.2-.117.117-.2.2.116Zm-20.008-.213-.116-.2.2-.116.117.2Zm19.022-.357-.2-.117.117-.2.2.116Zm-18.035-.213-.116-.2.2-.116.117.2Zm17.049-.357-.2-.117.117-.2.2.117Zm-16.063-.213-.117-.2.2-.117.117.2Zm15.076-.357-.2-.116.117-.2.2.117Zm-14.09-.213-.117-.2.2-.117.117.2Zm13.1-.357-.2-.116.117-.2.2.117Zm-12.117-.213-.117-.2.2-.117.117.2Zm11.131-.357-.2-.117.117-.2.2.117Zm-10.144-.213-.117-.2.2-.117.117.2Zm9.158-.357-.2-.117.117-.2.2.116Zm-8.171-.213-.117-.2.2-.116.117.2Zm7.185-.357-.2-.117.117-.2.2.117Zm-6.2-.213-.117-.2.2-.116.117.2Zm5.212-.357-.2-.116.117-.2.2.117Zm-4.226-.213-.117-.2.2-.117.117.2Zm3.24-.357-.2-.116.117-.2.2.117Zm-2.256-.211-.111-.2a2.18,2.18,0,0,1,.222-.105l.088.216A2.1,2.1,0,0,0,133.664,147.73Zm1.254-.215a2.13,2.13,0,0,0-.219-.023l.011-.232a2.155,2.155,0,0,1,.245.025Z" transform="translate(-67.208 -112.249)" fill="#73cffe" opacity="0.4"/><path d="M95.805,171.568l-.116-.2.2-.116.117.2Zm.987-.57-.117-.2.2-.116.117.2Zm.987-.57-.117-.2.2-.117.116.2Zm.986-.57-.117-.2.2-.117.117.2Zm.986-.569-.117-.2.2-.117.117.2Zm.987-.57-.117-.2.2-.117.117.2Zm.986-.569-.116-.2.2-.116.117.2Zm.987-.57-.117-.2.2-.117.117.2Zm.986-.57-.116-.2.2-.117.116.2Zm.987-.57-.117-.2.2-.117.117.2Zm.986-.569-.117-.2.2-.117.116.2Zm.946-.731-.222-.072a.409.409,0,0,0,.02-.127.39.39,0,0,0,0-.052l.231-.03a.643.643,0,0,1-.026.281Zm-.774-.763-.2-.116.117-.2.2.117Zm-.986-.569-.2-.117.116-.2.2.117Zm-.987-.57-.2-.117.117-.2.2.117Zm-.986-.569-.2-.117.116-.2.2.117Zm-.987-.57-.2-.117.117-.2.2.117Zm-.986-.57-.2-.116.116-.2.2.117Zm-.987-.57-.2-.116.117-.2.2.117Zm44.8-.393c-.038,0-.076,0-.115,0l.014-.233c.037,0,.074,0,.111,0s.073,0,.109,0l.013.233C144.813,160.568,144.769,160.568,144.726,160.569Zm-45.79-.176-.2-.117.117-.2.2.117Zm46.836-.081-.11-.205.2-.114.117.2Zm-2.074,0-.068-.037-.138-.08.116-.2.139.08.06.034Zm-45.749-.486-.2-.117.117-.2.2.117Zm48.813-.082-.117-.2.2-.117.117.2Zm-4.055,0-.2-.117.117-.2.2.117Zm-45.744-.485-.2-.117.116-.2.2.117Zm50.786-.082-.116-.2.2-.117.117.2Zm-6.028,0-.2-.117.116-.2.2.116Zm-45.744-.486-.2-.117.117-.2.2.117Zm52.759-.082-.116-.2.2-.116.117.2Zm-8,0-.2-.117.117-.2.2.116Zm-45.744-.486-.2-.116.116-.2.2.117Zm54.731-.082-.116-.2.2-.116.117.2Zm-9.973,0-.2-.117.117-.2.2.117ZM94,157.545l-.2-.116.117-.2.2.117Zm56.7-.082-.117-.2.2-.117.117.2Zm-11.946,0-.2-.117.117-.2.2.117Zm-45.744-.486-.2-.117.117-.2.2.117Zm58.677-.082-.117-.2.2-.117.117.2Zm-13.486-.294-.231-.023a.64.64,0,0,1,.09-.268l.2.122A.409.409,0,0,0,138.208,156.6Zm-46.178-.193-.2-.117.117-.2.2.116Zm60.65-.082-.117-.2.2-.117.117.2Zm-13.711-.356-.117-.2.2-.117.116.2Zm-47.925-.131-.2-.117.117-.2.2.117Zm62.622-.082-.117-.2.2-.117.117.2Zm-13.711-.356-.117-.2.2-.117.117.2Zm-49.9-.131-.2-.117.117-.2.2.117Zm64.595-.082-.117-.2.2-.116.117.2Zm-13.711-.356-.116-.2.2-.117.116.2Zm-51.87-.131-.2-.116.117-.2.2.117Zm66.568-.082-.117-.2.2-.116.117.2Zm-13.711-.356-.117-.2.2-.117.117.2Zm14.7-.213-.117-.2.2-.117.117.2Zm-68.5-.075a.64.64,0,0,1-.034-.207.685.685,0,0,1,0-.074l.231.026c0,.015,0,.031,0,.047a.411.411,0,0,0,.022.132Zm54.791-.281-.116-.2.2-.116.117.2Zm14.7-.213-.117-.2.2-.117.116.2ZM88.889,153.2l-.117-.2.2-.117.117.2Zm55.011-.084-.116-.2.2-.116.117.2ZM109.895,153l-.034-.23a2.036,2.036,0,0,0,.215-.044l.059.225A2.215,2.215,0,0,1,109.895,153Zm-.947-.065a2.3,2.3,0,0,1-.231-.082l.09-.215a2,2,0,0,0,.208.074Zm49.65-.028-.117-.2.2-.117.117.2Zm-68.723-.272-.117-.2.2-.117.116.2Zm21.1-.082-.116-.2.2-.117.116.2Zm33.908,0-.116-.2.2-.117.117.2Zm-36.977-.142-.2-.117.117-.2.2.117Zm51.674-.071-.117-.2.2-.117.116.2Zm-68.723-.272-.117-.2.2-.117.117.2Zm21.1-.082-.117-.2.2-.117.117.2Zm33.908,0-.117-.2.2-.117.117.2Zm-38.949-.142-.2-.117.116-.2.2.117Zm53.647-.071-.117-.2.2-.116.117.2ZM91.848,151.5l-.116-.2.2-.116.117.2Zm21.1-.082-.117-.2.2-.117.116.2Zm33.908,0-.117-.2.2-.117.117.2Zm-40.922-.142-.2-.117.117-.2.2.116Zm55.62-.071-.116-.2.2-.116.116.2Zm-68.723-.272-.117-.2.2-.116.117.2Zm21.1-.082-.117-.2.2-.116.117.2Zm33.908,0-.117-.2.2-.117.117.2Zm-42.895-.142-.2-.117.116-.2.2.117Zm57.592-.071-.117-.2.2-.117.117.2Zm-68.723-.272-.116-.2.2-.117.117.2Zm21.1-.082-.117-.2.2-.116.116.2Zm33.908,0-.117-.2.2-.116.117.2Zm-44.868-.142-.2-.116.117-.2.2.117Zm59.565-.071-.116-.2.2-.117.117.2Zm-68.723-.272-.117-.2.2-.117.117.2Zm21.1-.082-.117-.2.2-.117.117.2Zm33.908,0-.117-.2.2-.116.117.2Zm-46.84-.142-.2-.116.117-.2.2.117Zm61.538-.071-.116-.2.2-.117.117.2Zm-68.723-.272-.116-.2.2-.117.117.2Zm21.1-.082-.116-.2.2-.117.117.2Zm33.908,0-.117-.2.036-.021a.4.4,0,0,0,.113-.1l.181.147a.639.639,0,0,1-.177.151Zm-48.814-.142-.2-.117.117-.2.2.117Zm63.511-.071-.116-.2.2-.117.117.2Zm-68.723-.272-.117-.2.2-.117.117.2Zm21.1-.082-.117-.2.2-.117.117.2Zm-16.878-.144-.2-.117.117-.2.2.117Zm65.483-.071-.117-.2.2-.116.117.2Zm-15.775-.142-.2-.117.116-.2.2.117Zm-52.948-.131-.117-.2.2-.116.116.2Zm21.1-.082-.116-.2.2-.117.117.2Zm-18.848-.141a1.962,1.962,0,0,0-.2-.093l.086-.216a2.338,2.338,0,0,1,.223.1Zm67.453-.074-.116-.2.2-.116.117.2Zm-68.709-.134-.038-.23a2.161,2.161,0,0,1,.245-.026l.012.233A1.907,1.907,0,0,0,98.767,147.648Zm50.962-.008-.2-.117.117-.2.2.116Zm-29.872-.213-.117-.2.2-.116.116.2Zm48.605-.215-.117-.2.2-.117.117.2Zm-19.72-.141-.2-.117.116-.2.2.117Zm-27.9-.213-.117-.2.2-.116.116.2Zm48.605-.215-.117-.2.2-.117.117.2Zm-21.693-.141-.2-.116.116-.2.2.117Zm-25.926-.213-.117-.2.2-.117.117.2Zm48.605-.215-.117-.2.2-.117.117.2Zm-23.665-.141-.2-.117.116-.2.2.117Zm-23.954-.213-.117-.2.2-.117.116.2Zm22.967-.357-.2-.117.117-.2.2.117ZM123.8,145.15l-.116-.2.2-.117.117.2Zm20.995-.356-.2-.117.117-.2.2.116Zm-20.008-.213-.116-.2.2-.117.117.2Zm19.022-.356-.2-.117.117-.2.2.116Zm-18.035-.213-.116-.2.2-.116.117.2Zm17.049-.357-.2-.116.117-.2.2.117Zm-16.063-.213-.116-.2.2-.116.117.2Zm15.076-.357-.2-.116.117-.2.2.117Zm-14.09-.213-.117-.2.2-.117.117.2Zm13.1-.357-.2-.117.117-.2.2.117Zm-12.117-.213-.116-.2.2-.117.117.2Zm11.131-.356-.2-.117.117-.2.2.117Zm-10.144-.213-.117-.2.2-.117.117.2Zm9.158-.356-.2-.117.117-.2.2.116Zm-8.171-.213-.117-.2.2-.117.117.2Zm7.185-.356-.2-.117.117-.2.2.117Zm-6.2-.213-.117-.2.2-.116.117.2Zm5.212-.357-.2-.116.117-.2.2.117Zm-4.226-.213-.117-.2.2-.117.117.2Zm3.24-.357-.2-.116.117-.2.2.117Zm-2.256-.211-.111-.2a2.237,2.237,0,0,1,.222-.105l.088.216A2.092,2.092,0,0,0,133.664,139.457Zm1.255-.215a2.117,2.117,0,0,0-.219-.023l.011-.232a2.144,2.144,0,0,1,.244.025Z" transform="translate(-67.208 -106.382)" fill="#73cffe"/><g transform="translate(18.766)"><circle cx="32.719" cy="32.719" r="32.719" opacity="0.2" fill="url(#c)"/></g><g transform="translate(46.807 22.192)"><path d="M191.469,114.787c0-.052.007-.1.008-.154a2.234,2.234,0,0,0-.163-.955,1.208,1.208,0,0,0-.492-.572l-1.477-.858a1.615,1.615,0,0,1,.655,1.527c0,.051,0,.1-.008.154,0,.015,0,.031,0,.047,0,.038-.007.076-.012.114,0,.017,0,.033-.006.05,0,.034-.01.067-.015.1l-.007.047c-.008.049-.018.1-.028.148s-.019.088-.03.131l-.01.04c-.008.031-.016.061-.024.092,0,.011-.006.022-.01.033-.009.031-.018.062-.028.093l-.015.045-.023.069c-.021.062-.043.124-.067.185l-.013.032c-.02.052-.041.1-.063.155l-.017.039c-.025.058-.051.115-.079.172l-.017.033q-.035.073-.073.144l-.021.04q-.045.085-.093.167l-.017.029c-.03.05-.06.1-.091.149l-.022.035c-.037.058-.075.114-.114.17l-.023.032c-.044.062-.089.124-.135.183l-.043.054-.046.058-.045.053-.047.056-.022.025c-.029.033-.058.065-.087.1l-.037.04-.076.078-.047.047-.032.031-.065.061-.029.026-.094.082,0,0-.091.074-.031.024-.068.051-.034.025-.069.049-.031.021-.1.065-.074.044c-.035.02-.069.039-.1.057l-.027.014-.092.045-.01.005-.094.04-.1.038-.024.009q-.062.021-.122.038l-.069.017-.034.008-.1.019h0l-.092.011-.03,0-.065,0h-.118l-.084-.007-.017,0-.067-.011-.022,0-.074-.018h0c-.026-.008-.051-.016-.076-.025l-.02-.008-.059-.025-.016-.007c-.025-.012-.05-.025-.074-.039l1.477.859.012.007c.02.012.041.022.062.032l.015.007.035.016.024.009.02.008.075.025h.006l.074.018.022,0,.023,0,.044.006.017,0,.075.007h.149l.043,0,.03,0c.03,0,.061-.006.092-.011h0c.033-.005.067-.012.1-.019l.034-.008.063-.015.006,0c.04-.011.081-.024.122-.037l.024-.009c.033-.012.067-.024.1-.038l.013-.005.081-.035.01-.005.092-.045.027-.014c.034-.018.069-.037.1-.057l.074-.044.1-.065.031-.021.069-.049.035-.025.068-.051.031-.024.091-.074,0,0c.032-.027.063-.054.094-.082l.029-.026.065-.061.032-.031.025-.024.022-.023.076-.078.037-.04c.029-.031.058-.063.087-.1l.018-.02,0,0,.047-.056.045-.053.046-.058.04-.05,0,0c.046-.06.091-.121.135-.183l.013-.018.009-.014c.039-.056.077-.113.114-.17l.008-.012.014-.023q.047-.074.091-.149l.012-.02,0-.008c.032-.055.063-.111.093-.167l.008-.015.013-.025c.025-.048.049-.1.073-.144l.012-.024,0-.01c.027-.057.053-.115.079-.172l.007-.015c0-.008.006-.017.01-.025q.033-.077.063-.155l.009-.023,0-.009c.024-.062.046-.124.067-.186l.007-.018.016-.051.015-.046c.01-.031.019-.062.028-.092,0-.011.007-.022.01-.034l0-.006c.008-.029.015-.057.022-.086l.01-.04c.01-.043.021-.087.03-.13h0q.016-.075.028-.148l.008-.046c.005-.034.01-.068.015-.1,0-.007,0-.014,0-.022s0-.019,0-.029c0-.038.008-.076.012-.114C191.467,114.818,191.468,114.8,191.469,114.787Z" transform="translate(-183.572 -109.609)" fill="url(#d)"/><path d="M184.4,103.454l-.023-.013-.015-.008-.073-.038-.023-.012c-.031-.015-.063-.029-.094-.043l0,0-.014-.005-.08-.031-.028-.01-.092-.029-.007,0h0c-.034-.01-.068-.019-.1-.027l-.028-.006-.085-.017-.017,0H183.7c-.036-.006-.073-.012-.11-.016l-.025,0-.093-.008-.017,0h-.01c-.04,0-.079,0-.12,0h-.023l-.107,0h-.026c-.044,0-.089.006-.134.01l-.027,0c-.047,0-.094.011-.141.018h0c-.057.009-.114.019-.172.032l-.013,0q-.083.018-.168.041l-.014,0-.011,0-.091.026-.021.006-.113.037-.032.011-.083.03-.042.016-.076.03-.023.009-.018.008-.109.047-.022.01-.13.062-.035.017-.1.052-.038.02c-.044.024-.089.048-.133.074-.067.039-.134.08-.2.122l-.064.042-.135.09-.074.052-.123.089-.075.056-.123.1-.07.056-.138.116-.051.043q-.093.082-.185.167l-.038.037-.121.116-.026.027-.033.033c-.056.056-.112.113-.166.172l0,0c-.056.059-.111.12-.165.181l-.033.037-.029.032-.075.089-.08.094-.1.119-.076.095-.014.017c-.048.062-.1.124-.142.188l-.006.009q-.066.089-.13.181l-.016.023-.04.058c-.035.052-.071.1-.1.156l-.046.07-.035.053-.074.118-.027.043c-.039.064-.078.128-.115.192l-.014.024-.03.052q-.05.087-.1.175l-.033.061-.022.04c-.032.06-.064.121-.095.182l-.009.018c-.026.052-.052.1-.077.156l-.025.052-.03.064q-.044.095-.086.19l-.019.042-.006.015c-.031.071-.061.143-.09.215l-.023.059c-.013.034-.027.068-.04.1l-.028.075-.027.074c-.024.066-.047.131-.069.2l-.013.039,0,.01c-.026.076-.05.154-.073.23-.007.022-.013.043-.019.065-.013.044-.026.087-.038.131,0,.014-.007.028-.011.042-.01.036-.019.072-.028.108s-.024.1-.036.144-.017.073-.025.109-.012.051-.017.076-.014.069-.021.1l-.005.026c-.015.076-.028.153-.041.229l-.006.039c-.009.061-.018.122-.026.183,0,.011,0,.022,0,.033s-.006.052-.009.077c-.006.054-.012.107-.016.161,0,.028,0,.056-.007.083,0,.054-.007.108-.01.161,0,.024,0,.049,0,.073,0,.077,0,.154,0,.23.009,3.188,3.128,5.262,3.988,5.772l1.477.859c-.859-.511-3.979-2.585-3.988-5.773,0-.076,0-.153,0-.229,0-.024,0-.049,0-.073,0-.053.006-.107.01-.161,0-.028,0-.055.007-.083,0-.053.01-.107.016-.161,0-.026.006-.051.009-.077.009-.072.019-.144.03-.216l.006-.039c.013-.076.026-.153.041-.229l.005-.026c.012-.06.025-.12.038-.18.008-.036.017-.073.025-.109s.023-.1.036-.144.018-.072.028-.108q.024-.086.049-.173c.006-.022.012-.043.019-.065.024-.08.05-.16.076-.24l.013-.039q.034-.1.069-.2l.027-.074c.022-.059.045-.118.068-.177l.023-.059q.047-.115.1-.229l.019-.042q.042-.1.086-.19l.03-.064c.033-.07.067-.139.1-.208l.009-.018q.056-.112.116-.222l.033-.061q.048-.088.1-.174l.03-.052c.042-.073.085-.145.129-.217l.027-.043c.036-.058.072-.115.109-.172l.046-.07c.035-.053.07-.1.1-.156l.04-.058q.072-.1.146-.2l.006-.009q.077-.1.156-.2l.076-.095.1-.118.079-.094.1-.121.033-.037c.054-.061.109-.122.165-.181l0,0c.055-.058.11-.115.166-.172l.033-.033q.073-.072.147-.142l.038-.037q.092-.085.185-.167l.051-.043c.046-.04.092-.079.138-.116l.069-.056.123-.1L182.3,105l.124-.089.074-.052.135-.089.064-.042c.067-.042.133-.083.2-.122l.133-.074.038-.02.1-.052.034-.017.13-.062.021-.01.109-.048.041-.017.075-.03.042-.016.083-.03.032-.011.113-.037.021-.006.091-.026.025-.007c.056-.015.113-.029.168-.041l.014,0q.086-.018.171-.031h0c.047-.007.094-.013.141-.018l.028,0c.045,0,.09-.008.134-.01h.026l.107,0h.023l.12,0,.028,0,.093.008.025,0c.037,0,.074.01.11.016l.024,0,.085.017.028.006c.035.008.069.017.1.027l.008,0c.031.009.062.019.092.03l.028.01.08.031.019.007.094.043.023.012.073.038.038.021Z" transform="translate(-177.257 -103.173)" fill="url(#e)"/><g transform="translate(1.477 0.858)"><path d="M186.5,106.7c2.309-1.333,4.187-.263,4.195,2.391.009,3.17-3.09,8.849-3.943,10.351a.619.619,0,0,1-.216.23.213.213,0,0,1-.216.02c-.859-.511-3.979-2.585-3.988-5.773A9.185,9.185,0,0,1,186.5,106.7Zm2.261,3.592c.036-1.489-.988-2.1-2.254-1.37l-.074.044a5,5,0,0,0-2.166,3.752c-.036,1.489.988,2.1,2.255,1.37l.074-.044a5,5,0,0,0,2.166-3.752Z" transform="translate(-182.337 -106.124)" fill="url(#f)"/></g></g><g transform="translate(0 3.599)"><g transform="translate(18.766)"><g transform="translate(2.589)"><path d="M121.532,44.356a1.85,1.85,0,0,0,1.11-2.1c-.361-1.274-1.851-.751-2.278-.546a3.416,3.416,0,0,1-1.224.506c-.936.242-1.208.088-2.507.349a8.868,8.868,0,0,1-2.091.21c1.145-.823,1.839-2.349,1.59-3.058s-1.523-.58-2.012-.118a8.023,8.023,0,0,1-2.23,1.61,17.045,17.045,0,0,0-1.783.62,1,1,0,0,0-.79-.82,1.578,1.578,0,0,0-1.521.742,2.941,2.941,0,0,1-1.156.7,3.3,3.3,0,0,1-1.406,1.054c-.39.148-.989.147-1.728.436-2.216.866-1.694,1.61-2.388,2.026s-1.781,1.15-1.781,1.15a57.7,57.7,0,0,1-9.62,9.782c3.437,2.349,6.374,7.5,6.844,12.3.029.3.045.583.054.864,2.771-1.006,5.317-.82,7.179-1.331,2.643-.725,6.3-4.277,6.3-4.277a8.282,8.282,0,0,0,2.723-1.012,29.1,29.1,0,0,1,5.739-1.573c1.037-.093,2.171-.307,2.539-.959a2.42,2.42,0,0,0-.11-2.166s.325.059.89-.465.1-1.688-.987-3.424-1.54-4.956-2.4-5.552-3.412-2.2-3.412-2.2a32.152,32.152,0,0,0,4.576-1.664A16.783,16.783,0,0,0,121.532,44.356Zm-5.939,8.826a6.884,6.884,0,0,0,1.55,2.8,6.89,6.89,0,0,1,.618,1.057,6.134,6.134,0,0,0-1.017.115,6.711,6.711,0,0,1-3.66.19c-.859-.187-2.5-1.752-1.877-2.556a6.64,6.64,0,0,0,.763-2.713c.207.188,1.316,0,1.316,0C113.591,52.735,115.592,53.182,115.592,53.182Z" transform="translate(-89.716 -39.223)" fill="url(#g)"/><g transform="translate(8.865 25.236)"><path d="M125.324,129.381c1.594-.563,5.043-3.112,6.4-3.361,0,0-3.662,3.551-6.3,4.277-1.412.387-3.215.374-5.212.782l.816-1.278A14.218,14.218,0,0,0,125.324,129.381Z" transform="translate(-120.206 -126.02)" fill="#4b95fa"/></g><g transform="translate(23.402 11.343)"><path d="M170.693,80.091a.943.943,0,0,1-.321-.34s-.066.011-.167.024a3.115,3.115,0,0,0,1.6-1.54C171.873,79.168,170.7,80.089,170.693,80.091Z" transform="translate(-170.205 -78.236)" fill="#67e2e8"/></g><g transform="translate(22.071 11.09)"><path d="M165.809,79.13s-.02.264-.077.637h0a5.562,5.562,0,0,1,.087-2.4,6.4,6.4,0,0,0,.3,1.844A.552.552,0,0,1,165.809,79.13Z" transform="translate(-165.627 -77.366)" fill="#67e2e8"/></g><g transform="translate(25.453 12.843)"><path d="M177.775,84.891a3.176,3.176,0,0,1-.094-.38s-.174-.039-.424-.11a5.127,5.127,0,0,0,2.86-1.006A4.587,4.587,0,0,1,177.775,84.891Z" transform="translate(-177.257 -83.395)" fill="#67e2e8"/></g><g transform="translate(27.312 17.058)"><g transform="translate(0 0.769)" opacity="0.52"><path d="M184.089,100.537a2.272,2.272,0,0,1-.436.058C183.787,100.574,183.948,100.551,184.089,100.537Z" transform="translate(-183.653 -100.537)" fill="#e28c61"/></g><g transform="translate(0.322)"><path d="M184.762,97.891s3.2,1.068,3.637,2.468h0a4.362,4.362,0,0,0-3.107-1.722l-.131-.011c-.045-.092-.222-.447-.4-.736Z" transform="translate(-184.762 -97.891)" fill="#67e2e8"/></g></g><g transform="translate(20.689 5.555)"><path d="M166.449,60.421s-5-1.919-5.576-2.093l4.672,2.327Z" transform="translate(-160.873 -58.328)" fill="#67e2e8"/></g><g transform="translate(23.875 2.536)"><path d="M173.77,47.946a4.254,4.254,0,0,1-.988,1.02,6.843,6.843,0,0,0,.971-.041h0l-1.922.244A3.454,3.454,0,0,0,173.77,47.946Z" transform="translate(-171.832 -47.946)" fill="#67e2e8"/></g><g transform="translate(20.121 2.206)"><path d="M158.919,47.4c.289-.14.143-.505.107-.586a1.146,1.146,0,0,1,.163.4s.259-.1.592-.23C159.52,47.082,158.919,47.4,158.919,47.4Z" transform="translate(-158.919 -46.811)" fill="#67e2e8"/></g><g transform="translate(26.901 17.661)"><path d="M186.608,101.83a4.651,4.651,0,0,0-4.371-1.56,9.442,9.442,0,0,1,1.591-.305,5.006,5.006,0,0,1,1.471.661,6.931,6.931,0,0,1,.828.59Z" transform="translate(-182.237 -99.964)" fill="#67e2e8"/></g></g><g transform="translate(10.533 19.486)"><path d="M117.038,106.242s4.367,4.881,2.853,9.684l-1.908-.017Z" transform="translate(-117.038 -106.242)" fill="#4b95fa"/></g><path d="M86.684,89.394a3.69,3.69,0,0,0-3.739.065v0l-2.131,1.527a6.164,6.164,0,0,1,1.286.427c3.971,1.8,7.618,7.643,8.146,13.044a10.434,10.434,0,0,1-.218,3.638l2.163-1.55h0c1.273-.935,1.95-2.931,1.686-5.632C93.409,96.141,90.189,90.985,86.684,89.394Z" transform="translate(-80.813 -74.473)" fill="#fff"/></g><g transform="translate(0 16.405)"><path d="M18.2,106.442h0l.009-.006.026-.019L32.087,96.249v0a4.179,4.179,0,0,1,4.235-.074c3.971,1.8,7.618,7.643,8.146,13.044.3,3.06-.468,5.321-1.909,6.38h0L28.844,125.67l-.034.024-.122.087v0a4.192,4.192,0,0,1-4.206.054c-3.971-1.8-7.618-7.643-8.146-13.044C16.04,109.761,16.787,107.514,18.2,106.442Z" transform="translate(-16.272 -95.646)" fill="url(#h)"/></g></g><g transform="translate(25.136 0.094)"><g transform="translate(0 2.642)" opacity="0.4"><path d="M104.718,36.255v2.368l-2-1.184Z" transform="translate(-102.721 -36.255)" fill="#4b95fa"/><path d="M122.169,38.623V36.255l2,1.184Z" transform="translate(-116.515 -36.255)" fill="#4b95fa"/></g><g transform="translate(2.642)"><path d="M111.807,46.618h2.368l-1.184,2Z" transform="translate(-111.807 -40.963)" fill="#81dafe"/><path d="M114.175,29.166h-2.368l1.184-2Z" transform="translate(-111.807 -27.17)" fill="#4b95fa" opacity="0.4"/></g></g><path d="M199.741,159.516c.814,1.949,4.225,9.295,10.811,13.1,5.513,3.183,12.785,4.145,16.242,2.149s1.791-6.195-3.722-9.377c-6.624-3.824-19.316-5.778-22.686-6.243C199.919,159.078,199.628,159.247,199.741,159.516Zm20.611,7.643c2.753,1.655,3.607,3.8,1.934,4.874-1.847,1.18-5.973.635-9.013-1.193-2.754-1.655-3.607-3.8-1.934-4.874C213.185,164.786,217.311,165.332,220.352,167.159Z" transform="translate(-146.379 -120.667)" fill="#1c012d" opacity="0.5"/><g transform="translate(49.565 35.738)"><g transform="translate(3.167)"><path d="M198.163,156.144a.283.283,0,1,1-.386-.1A.283.283,0,0,1,198.163,156.144Z" transform="translate(-197.635 -154.187)" fill="#81dafe"/><path d="M200.886,154.584a.283.283,0,1,1-.386-.1A.283.283,0,0,1,200.886,154.584Z" transform="translate(-199.566 -153.08)" fill="#81dafe" opacity="0.8"/><path d="M203.609,153.024a.283.283,0,1,1-.386-.1A.283.283,0,0,1,203.609,153.024Z" transform="translate(-201.497 -151.974)" fill="#81dafe" opacity="0.6"/><path d="M206.333,151.463a.283.283,0,1,1-.386-.1A.283.283,0,0,1,206.333,151.463Z" transform="translate(-203.429 -150.867)" fill="#81dafe" opacity="0.4"/><path d="M209.056,149.9a.283.283,0,1,1-.386-.1A.283.283,0,0,1,209.056,149.9Z" transform="translate(-205.36 -149.761)" fill="#81dafe" opacity="0.2"/></g><g transform="translate(0 1.815)"><path d="M197.672,156.425a.283.283,0,1,0,.1-.386A.283.283,0,0,0,197.672,156.425Z" transform="translate(-194.468 -156.001)" fill="#81dafe"/><path d="M194.949,157.986a.283.283,0,1,0,.1-.386A.283.283,0,0,0,194.949,157.986Z" transform="translate(-192.536 -157.108)" fill="#81dafe" opacity="0.8"/><path d="M192.226,159.546a.283.283,0,1,0,.1-.386A.283.283,0,0,0,192.226,159.546Z" transform="translate(-190.605 -158.215)" fill="#81dafe" opacity="0.6"/><path d="M189.5,161.106a.283.283,0,1,0,.1-.386A.283.283,0,0,0,189.5,161.106Z" transform="translate(-188.674 -159.321)" fill="#81dafe" opacity="0.4"/><path d="M186.78,162.666a.283.283,0,1,0,.1-.386A.283.283,0,0,0,186.78,162.666Z" transform="translate(-186.742 -160.428)" fill="#81dafe" opacity="0.2"/></g></g><g transform="translate(52.867 53.788)"><g transform="translate(0 1.192)"><path d="M198.715,216.3a.562.562,0,0,1-.509,0,.155.155,0,0,1,0-.293.562.562,0,0,1,.509,0A.155.155,0,0,1,198.715,216.3Z" transform="translate(-198.101 -215.943)" fill="#81dafe"/><ellipse cx="0.36" cy="0.208" rx="0.36" ry="0.208" transform="translate(0.82 0.473)" fill="#81dafe" opacity="0.8"/><path d="M204.353,219.552a.563.563,0,0,1-.508,0,.155.155,0,0,1,0-.294.561.561,0,0,1,.508,0A.155.155,0,0,1,204.353,219.552Z" transform="translate(-202.1 -218.251)" fill="#81dafe" opacity="0.6"/><path d="M207.173,221.18a.562.562,0,0,1-.509,0,.155.155,0,0,1,0-.293.562.562,0,0,1,.509,0A.155.155,0,0,1,207.173,221.18Z" transform="translate(-204.1 -219.406)" fill="#81dafe" opacity="0.4"/><path d="M209.992,222.808a.562.562,0,0,1-.509,0,.155.155,0,0,1,0-.293.562.562,0,0,1,.509,0A.155.155,0,0,1,209.992,222.808Z" transform="translate(-206.099 -220.561)" fill="#81dafe" opacity="0.2"/></g><g transform="translate(2.065)"><path d="M205.816,212.2a.561.561,0,0,1-.508,0,.155.155,0,0,1,0-.293.561.561,0,0,1,.508,0A.155.155,0,0,1,205.816,212.2Z" transform="translate(-205.203 -211.843)" fill="#81dafe"/><path d="M208.636,213.825a.562.562,0,0,1-.509,0,.155.155,0,0,1,0-.294.564.564,0,0,1,.509,0A.155.155,0,0,1,208.636,213.825Z" transform="translate(-207.202 -212.997)" fill="#81dafe" opacity="0.8"/><path d="M211.455,215.452a.563.563,0,0,1-.509,0,.155.155,0,0,1,0-.294.562.562,0,0,1,.509,0A.155.155,0,0,1,211.455,215.452Z" transform="translate(-209.201 -214.151)" fill="#81dafe" opacity="0.6"/><path d="M214.274,217.08a.561.561,0,0,1-.508,0,.155.155,0,0,1,0-.293.561.561,0,0,1,.508,0A.155.155,0,0,1,214.274,217.08Z" transform="translate(-211.202 -215.306)" fill="#81dafe" opacity="0.4"/><ellipse cx="0.36" cy="0.208" rx="0.36" ry="0.208" transform="translate(3.279 1.893)" fill="#81dafe" opacity="0.2"/></g></g><g transform="translate(59.222 22.192)"><g transform="translate(0 1.192)"><path d="M220.571,107.627a.561.561,0,0,1-.508,0,.155.155,0,0,1,0-.293.561.561,0,0,1,.508,0A.155.155,0,0,1,220.571,107.627Z" transform="translate(-219.958 -107.273)" fill="#81dafe"/><path d="M223.39,109.255a.561.561,0,0,1-.508,0,.155.155,0,0,1,0-.293.561.561,0,0,1,.508,0A.155.155,0,0,1,223.39,109.255Z" transform="translate(-221.957 -108.427)" fill="#81dafe" opacity="0.8"/><path d="M226.21,110.882a.562.562,0,0,1-.508,0,.155.155,0,0,1,0-.294.562.562,0,0,1,.508,0A.155.155,0,0,1,226.21,110.882Z" transform="translate(-223.956 -109.581)" fill="#81dafe" opacity="0.6"/><path d="M229.029,112.51a.564.564,0,0,1-.509,0,.155.155,0,0,1,0-.294.562.562,0,0,1,.509,0A.155.155,0,0,1,229.029,112.51Z" transform="translate(-225.956 -110.736)" fill="#81dafe" opacity="0.4"/><path d="M231.848,114.138a.561.561,0,0,1-.508,0,.155.155,0,0,1,0-.293.561.561,0,0,1,.508,0A.155.155,0,0,1,231.848,114.138Z" transform="translate(-227.956 -111.891)" fill="#81dafe" opacity="0.2"/></g><g transform="translate(2.065)"><path d="M227.673,103.527a.562.562,0,0,1-.509,0,.155.155,0,0,1,0-.293.562.562,0,0,1,.509,0A.155.155,0,0,1,227.673,103.527Z" transform="translate(-227.059 -103.173)" fill="#81dafe"/><path d="M230.492,105.155a.562.562,0,0,1-.509,0,.155.155,0,0,1,0-.293.562.562,0,0,1,.509,0A.155.155,0,0,1,230.492,105.155Z" transform="translate(-229.058 -104.327)" fill="#81dafe" opacity="0.8"/><ellipse cx="0.36" cy="0.208" rx="0.36" ry="0.208" transform="translate(1.639 0.947)" fill="#81dafe" opacity="0.6"/><ellipse cx="0.36" cy="0.208" rx="0.36" ry="0.208" transform="translate(2.459 1.42)" fill="#81dafe" opacity="0.4"/><path d="M238.95,110.038a.562.562,0,0,1-.509,0,.155.155,0,0,1,0-.293.562.562,0,0,1,.509,0A.155.155,0,0,1,238.95,110.038Z" transform="translate(-235.057 -107.791)" fill="#81dafe" opacity="0.2"/></g></g><g transform="translate(79.71 21.27)"><g transform="translate(0 2.694)"><path d="M291.955,110.035a.767.767,0,1,1-.767-.767A.767.767,0,0,1,291.955,110.035Z" transform="translate(-290.421 -109.268)" fill="#81dafe"/><path d="M303.927,110.035a.767.767,0,1,1-.767-.767A.767.767,0,0,1,303.927,110.035Z" transform="translate(-298.912 -109.268)" fill="#81dafe"/></g><circle cx="0.767" cy="0.767" r="0.767" transform="translate(1.74)" fill="#4b95fa"/></g></g></g><g transform="translate(120.117 15.189)"><text transform="translate(0 17)" fill="#fff" font-size="18" font-family="Raleway-SemiBold, Raleway" font-weight="600"><tspan x="0" y="0">TRACKING </tspan><tspan x="0" y="22">PERMOHONAN</tspan></text></g></g></svg>